<svg xmlns="http://www.w3.org/2000/svg">
<defs>
<font id="SteradianTRIAL-Bd" horiz-adv-x="1239" >
  <font-face 
    font-family="Steradian TRIAL Bd"
    font-weight="700"
    font-stretch="normal"
    units-per-em="2048"
    panose-1="0 0 0 0 0 0 0 0 0 0"
    ascent="1536"
    descent="-512"
    x-height="1042"
    cap-height="1440"
    bbox="-47 -463 2077 1628"
    underline-thickness="73"
    underline-position="-216"
    unicode-range="U+000D-00A0"
  />
<missing-glyph horiz-adv-x="1431" 
d="M1329 1591h-1173v37h1173v-37zM221 1409h-65v55h192v-55h-65v-229h-62v229zM649 1464h62v-284h-62v284zM825 1225l-10 -45h-61l82 284h67l80 -284h-63l-13 45h-82zM1026 1464h61v-227h107v-57h-168v284zM596 1180h-68l-39 102h-36v-102h-62v284h105q42 0 70 -25.5
t28 -66.5q0 -51 -43 -76zM489 1407h-36v-72h36q17 0 28 10.5t11 24.5q0 37 -39 37zM895 1278l-29 111l-26 -111h55zM602 1004v-97q0 -44 -28 -71t-74 -27t-74.5 27t-28.5 71v97q0 46 26.5 72t76.5 26q46 0 74 -26.5t28 -71.5zM340 979v-57h-100v-109h-62v285h176v-56h-114
v-63h100zM803 1098h55v-285h-49l-92 162v-162h-55v285h53l88 -158v158zM969 1042h-66v56h193v-56h-66v-229h-61v229zM459 1001v-94q0 -41 41 -41t41 41v94q0 46 -41 46t-41 -46zM1329 657h-1173v37h1173v-37zM600 492h-25v36h25v43h45v-43h27v-36h-27v-121h-45v121z
M1100 426h45q0 -26 -18 -41.5t-48 -15.5q-28 0 -46.5 17.5t-18.5 47.5v35q0 29 18.5 46t46.5 17q30 0 48 -17t18 -46v-27h-86v-14q0 -25 20 -25q21 0 21 23zM258 426h45q0 -27 -17.5 -43t-47.5 -16q-29 0 -47.5 18t-18.5 49v35q0 30 18.5 46.5t47.5 16.5q30 0 47.5 -16.5
t17.5 -46.5v-27h-86v-14q0 -11 6 -18t15 -7q20 0 20 23zM379 371h-45v157h37l2 -12q16 16 39 16q31 0 43 -24q15 24 43 24q53 0 53 -57v-104h-45v100q0 23 -21 23q-20 0 -20 -21v-102h-45v100q0 23 -21 23q-9 0 -14.5 -7t-5.5 -16v-100zM891 528l2 -12q16 16 39 16
q53 0 53 -61v-41q0 -63 -53 -63q-21 0 -35 14v-72h-45v219h39zM827 528l-67 -219h-43l18 56l-51 163h49l25 -98l24 98h45zM1059 475v-2h41v2q0 23 -21 23q-9 0 -14.5 -7t-5.5 -16zM217 475v-2h41v2q0 23 -20 23q-9 0 -15 -7t-6 -16zM918 494q-9 0 -15 -7t-6 -16v-41

<glyph glyph-name=".notdef" horiz-adv-x="1431" 
d="M1329 1591h-1173v37h1173v-37zM221 1409h-65v55h192v-55h-65v-229h-62v229zM649 1464h62v-284h-62v284zM825 1225l-10 -45h-61l82 284h67l80 -284h-63l-13 45h-82zM1026 1464h61v-227h107v-57h-168v284zM596 1180h-68l-39 102h-36v-102h-62v284h105q42 0 70 -25.5
t28 -66.5q0 -51 -43 -76zM489 1407h-36v-72h36q17 0 28 10.5t11 24.5q0 37 -39 37zM895 1278l-29 111l-26 -111h55zM602 1004v-97q0 -44 -28 -71t-74 -27t-74.5 27t-28.5 71v97q0 46 26.5 72t76.5 26q46 0 74 -26.5t28 -71.5zM340 979v-57h-100v-109h-62v285h176v-56h-114
v-63h100zM803 1098h55v-285h-49l-92 162v-162h-55v285h53l88 -158v158zM969 1042h-66v56h193v-56h-66v-229h-61v229zM459 1001v-94q0 -41 41 -41t41 41v94q0 46 -41 46t-41 -46zM1329 657h-1173v37h1173v-37zM600 492h-25v36h25v43h45v-43h27v-36h-27v-121h-45v121z
M1100 426h45q0 -26 -18 -41.5t-48 -15.5q-28 0 -46.5 17.5t-18.5 47.5v35q0 29 18.5 46t46.5 17q30 0 48 -17t18 -46v-27h-86v-14q0 -25 20 -25q21 0 21 23zM258 426h45q0 -27 -17.5 -43t-47.5 -16q-29 0 -47.5 18t-18.5 49v35q0 30 18.5 46.5t47.5 16.5q30 0 47.5 -16.5
t17.5 -46.5v-27h-86v-14q0 -11 6 -18t15 -7q20 0 20 23zM379 371h-45v157h37l2 -12q16 16 39 16q31 0 43 -24q15 24 43 24q53 0 53 -57v-104h-45v100q0 23 -21 23q-20 0 -20 -21v-102h-45v100q0 23 -21 23q-9 0 -14.5 -7t-5.5 -16v-100zM891 528l2 -12q16 16 39 16
q53 0 53 -61v-41q0 -63 -53 -63q-21 0 -35 14v-72h-45v219h39zM827 528l-67 -219h-43l18 56l-51 163h49l25 -98l24 98h45zM1059 475v-2h41v2q0 23 -21 23q-9 0 -14.5 -7t-5.5 -16zM217 475v-2h41v2q0 23 -20 23q-9 0 -15 -7t-6 -16zM918 494q-9 0 -15 -7t-6 -16v-41
q0 -9 6 -15.5t15 -6.5q22 0 22 22v41q0 9 -6 16t-16 7zM514 248h-29v20h29v43h25v-43h30v-20h-30v-137h-25v137zM203 111h-25v157h19l2 -18q16 22 45 22q26 0 40.5 -15.5t14.5 -43.5v-102h-25v102q0 37 -36 37q-35 0 -35 -39v-100zM434 166h25v-4q0 -24 -16.5 -38.5
t-43.5 -14.5q-26 0 -42.5 15.5t-16.5 41.5v45q0 28 16.5 44.5t42.5 16.5q27 0 43.5 -17t16.5 -44v-25h-94v-20q0 -35 34 -35q17 0 26 8.5t9 20.5v6zM365 211v-4h69v4q0 39 -35 39q-34 0 -34 -39zM119 109q-6 0 -11.5 5t-5.5 11t5.5 11t11.5 5q16 0 16 -16t-16 -16zM1329 0
h-1173v16h1173v-16z" />
    <glyph glyph-name=".null" horiz-adv-x="0" 
 />
    <glyph glyph-name="nonmarkingreturn" horiz-adv-x="682" 
 />
    <glyph glyph-name="CR" unicode="&#xd;" horiz-adv-x="456" 
 />
    <glyph glyph-name="space" unicode=" " horiz-adv-x="456" 
 />
    <glyph glyph-name="comma" unicode="," horiz-adv-x="581" 
d="M41 -346l168 334q-59 24 -92 75t-33 109q0 88 57 146.5t148 58.5t149 -58.5t58 -144.5q0 -49 -33 -113l-201 -407h-221z" />
    <glyph glyph-name="hyphen" unicode="-" horiz-adv-x="739" 
d="M623 668v-273h-506v273h506z" />
    <glyph glyph-name="period" unicode="." horiz-adv-x="575" 
d="M287 -27q-90 0 -147.5 58.5t-57.5 140.5q0 88 57 146.5t148 58.5t149 -59t58 -146q0 -82 -58.5 -140.5t-148.5 -58.5z" />
    <glyph glyph-name="zero" unicode="0" horiz-adv-x="1314" 
d="M1206 932v-422q0 -116 -33.5 -210t-87.5 -153.5t-127 -100t-147.5 -57t-153.5 -16.5t-153.5 16.5t-147 57t-126.5 100t-87.5 153.5t-33.5 210v422q0 116 33.5 209.5t87.5 153t126.5 99t147 56t153.5 16.5t153.5 -16.5t147.5 -56t127 -99t87.5 -153t33.5 -209.5zM881 930
q0 106 -57 167.5t-171 61.5q-106 0 -162.5 -62t-56.5 -167v-418q0 -107 56 -168t163 -61q114 0 171 60.5t57 168.5v418z" />
    <glyph glyph-name="one" unicode="1" horiz-adv-x="786" 
d="M301 0v1143h-270l73 297h523v-1440h-326z" />
    <glyph glyph-name="two" unicode="2" horiz-adv-x="1257" 
d="M100 0v250l559 522q65 62 96 115t31 112q0 68 -43 114t-127 46q-55 0 -95.5 -18.5t-63 -50.5t-34 -64.5t-15.5 -69.5h-334q5 101 43 191.5t106 162.5t173.5 114t236.5 42q220 0 358.5 -120.5t138.5 -319.5q0 -77 -19.5 -144.5t-61.5 -129t-87.5 -110.5t-115.5 -112
l-258 -233h581v-297h-1069z" />
    <glyph glyph-name="three" unicode="3" horiz-adv-x="1226" 
d="M401 432q11 -71 67 -115.5t144 -44.5q90 0 142.5 50.5t52.5 126.5q0 89 -59 133.5t-154 44.5h-154v235h160q75 0 121.5 41t46.5 121q0 63 -43.5 104t-122.5 41q-83 0 -129.5 -41t-54.5 -112h-328q5 86 39.5 164.5t96 143.5t161 103.5t223.5 38.5q98 0 180.5 -24
t137.5 -63t93 -90.5t55.5 -106t17.5 -109.5q0 -220 -174 -317q219 -95 219 -342q0 -64 -19 -126t-61 -119.5t-102 -100.5t-148 -69t-193 -26q-130 0 -232.5 38t-167 103t-100.5 145.5t-44 172.5h329z" />
    <glyph glyph-name="four" unicode="4" horiz-adv-x="1267" 
d="M565 1440h375l-510 -908h324v256l317 76v-332h141v-290h-141v-242h-317v242h-707v245z" />
    <glyph glyph-name="five" unicode="5" horiz-adv-x="1218" 
d="M1051 1440v-297h-566l-20 -225q85 30 178 30q232 0 364 -129.5t132 -345.5t-149 -358t-374 -142q-224 0 -378.5 125t-176.5 332h334q16 -72 70 -116t137 -44q93 0 152 59.5t59 141.5q0 88 -56.5 144.5t-154.5 56.5q-125 0 -192 -86l-265 32l74 822h832z" />
    <glyph glyph-name="six" unicode="6" horiz-adv-x="1216" 
d="M78 483q0 97 35 207t96 207l348 543h379l-338 -486q58 7 80 7q137 0 249.5 -64.5t176 -174.5t63.5 -241q0 -138 -70.5 -254.5t-196 -185t-277.5 -68.5q-154 0 -279.5 68.5t-195.5 185.5t-70 256zM623 262q96 0 156.5 63.5t60.5 155.5q0 93 -60 155t-157 62
q-96 0 -158 -62.5t-62 -154.5q0 -91 62.5 -155t157.5 -64z" />
    <glyph glyph-name="seven" unicode="7" horiz-adv-x="1116" 
d="M51 1143v297h1018v-256l-567 -1184h-363l557 1143h-645z" />
    <glyph glyph-name="eight" unicode="8" horiz-adv-x="1230" 
d="M616 -27q-242 0 -387 130.5t-145 322.5q0 108 52.5 200.5t148.5 153.5q-64 55 -98.5 130.5t-34.5 160.5q0 167 127 281t337 114q211 0 339 -114t128 -281q0 -174 -135 -293q95 -60 147 -152t52 -200q0 -125 -63 -227t-185.5 -164t-282.5 -62zM616 889q80 0 126 44t46 109
q0 66 -46 111t-126 45t-126 -45t-46 -111q0 -65 46 -109t126 -44zM616 252q96 0 153.5 55t57.5 135q0 82 -57 137.5t-154 55.5t-155 -55.5t-58 -137.5q0 -80 58 -135t155 -55z" />
    <glyph glyph-name="nine" unicode="9" horiz-adv-x="1216" 
d="M1139 956q0 -97 -35 -206.5t-96 -206.5l-349 -543h-378l337 485q-50 -6 -79 -6q-103 0 -194 38t-156 102.5t-102.5 152.5t-37.5 186q0 103 42 196.5t113.5 162t173.5 109t216 40.5q154 0 279.5 -68.5t195.5 -185.5t70 -256zM594 1178q-96 0 -156.5 -64t-60.5 -156
q0 -93 60 -155t157 -62q96 0 157.5 62.5t61.5 154.5q0 91 -62 155.5t-157 64.5z" />
    <glyph glyph-name="A" unicode="A" horiz-adv-x="1439" 
d="M895 1440l516 -1440h-348l-86 258h-533l-86 -258h-331l520 1440h348zM711 1057l-176 -527h352z" />
    <glyph glyph-name="B" unicode="B" horiz-adv-x="1398" 
d="M160 0v1440h598q137 0 246 -40t176 -125.5t67 -205.5q0 -213 -196 -319q132 -44 202 -133.5t70 -210.5q0 -98 -40.5 -177t-109 -128t-156.5 -75t-186 -26h-671zM723 1174h-238v-314h240q84 0 136 40t52 122q0 72 -53.5 112t-136.5 40zM788 600h-303v-334h303q87 0 143 44
t56 130q0 78 -56 119t-143 41z" />
    <glyph glyph-name="C" unicode="C" horiz-adv-x="1648" 
d="M1583 600q-20 -132 -82.5 -246.5t-158 -199t-227.5 -133t-284 -48.5q-165 0 -307 59t-239 160t-152 238t-55 291q0 205 93 374t266.5 270t393.5 101q147 0 276 -45.5t224 -125t159 -188.5t89 -237h-350q-43 130 -148 209.5t-252 79.5q-120 0 -214.5 -59.5t-144.5 -159.5
t-50 -221q0 -186 113.5 -311t295.5 -125q159 0 268 87t144 230h342z" />
    <glyph glyph-name="D" unicode="D" horiz-adv-x="1564" 
d="M160 0v1440h549q122 0 235 -28t211.5 -86.5t171 -142t114.5 -201.5t42 -257q0 -142 -42 -261.5t-114.5 -204t-171 -143.5t-211.5 -87.5t-235 -28.5h-549zM485 307h213q198 0 321.5 107.5t123.5 310.5q0 197 -124 302.5t-321 105.5h-213v-826z" />
    <glyph glyph-name="E" unicode="E" horiz-adv-x="1202" 
d="M160 0v1440h927v-297h-602v-273h553v-280h-553v-293h613v-297h-938z" />
    <glyph glyph-name="F" unicode="F" horiz-adv-x="1163" 
d="M160 0v1440h927v-297h-602v-291h553v-293h-553v-559h-325z" />
    <glyph glyph-name="G" unicode="G" horiz-adv-x="1660" 
d="M1546 0h-270v186q-162 -213 -473 -213q-161 0 -298 59t-229.5 160.5t-144 238t-51.5 290.5q0 205 92.5 374t265 270t391.5 101q274 0 468.5 -148t252.5 -388h-358q-47 111 -142 170t-221 59q-184 0 -295.5 -126.5t-111.5 -313.5q0 -194 114.5 -321.5t309.5 -127.5
q142 0 247 60t146 176h-405v254h712v-760z" />
    <glyph glyph-name="H" unicode="H" horiz-adv-x="1470" 
d="M160 0v1440h325v-553h500v553h326v-1440h-326v580h-500v-580h-325z" />
    <glyph glyph-name="I" unicode="I" horiz-adv-x="645" 
d="M160 0v1440h325v-1440h-325z" />
    <glyph glyph-name="J" unicode="J" horiz-adv-x="1210" 
d="M1065 1440v-953q0 -229 -146.5 -371.5t-373.5 -142.5q-225 0 -370.5 143.5t-145.5 375.5h325q2 -98 50 -157t143 -59q94 0 143 61.5t49 160.5v942h326z" />
    <glyph glyph-name="K" unicode="K" horiz-adv-x="1349" 
d="M485 1440v-629l482 629h381l-545 -692l553 -748h-406l-465 645v-645h-325v1440h325z" />
    <glyph glyph-name="L" unicode="L" horiz-adv-x="1091" 
d="M160 0v1440h325v-1143h572v-297h-897z" />
    <glyph glyph-name="M" unicode="M" horiz-adv-x="1961" 
d="M160 0v1440h401l426 -897l432 897h383v-1440h-315v909l-443 -911h-126l-443 922v-920h-315z" />
    <glyph glyph-name="N" unicode="N" horiz-adv-x="1484" 
d="M160 0v1440h309l549 -891v891h307v-1440h-311l-547 885v-885h-307z" />
    <glyph glyph-name="O" unicode="O" horiz-adv-x="1689" 
d="M844 1466q169 0 314 -59t243.5 -159.5t154.5 -237t56 -289.5q0 -154 -56 -291t-154.5 -238t-243.5 -160t-314 -59t-313.5 59t-243 160.5t-154 238t-55.5 290.5q0 153 55.5 289.5t154 237t243 159.5t313.5 59zM844 1159q-189 0 -306.5 -127t-117.5 -313q0 -188 117 -313
t307 -125q192 0 310 125t118 313q0 186 -118.5 313t-309.5 127z" />
    <glyph glyph-name="P" unicode="P" horiz-adv-x="1339" 
d="M160 0v1440h575q111 0 210 -30.5t177 -88t124 -150t46 -208.5q0 -120 -45.5 -216t-123.5 -155.5t-177 -91t-211 -31.5h-250v-469h-325zM485 1153v-397h232q102 0 167.5 52t65.5 150q0 94 -65.5 144.5t-167.5 50.5h-232z" />
    <glyph glyph-name="Q" unicode="Q" horiz-adv-x="1691" 
d="M844 1466q169 0 314 -59t243.5 -159.5t154.5 -237t56 -289.5q0 -168 -65.5 -314t-184.5 -249l229 -324h-354l-129 180q-121 -41 -264 -41q-169 0 -313.5 59t-243 160.5t-154 238t-55.5 290.5q0 153 55.5 289.5t154 237t243 159.5t313.5 59zM608 719h355l213 -299
q100 124 100 299q0 123 -52.5 223.5t-152 160.5t-227.5 60q-192 0 -311 -127.5t-119 -316.5q0 -192 118.5 -319.5t311.5 -127.5q34 0 78 7z" />
    <glyph glyph-name="R" unicode="R" horiz-adv-x="1398" 
d="M160 0v1440h575q109 0 206.5 -28.5t175.5 -83t123.5 -142.5t45.5 -199q0 -166 -93.5 -276.5t-248.5 -157.5l416 -553h-397l-381 524h-97v-524h-325zM485 1157v-369h234q98 0 162.5 49.5t64.5 139.5q0 87 -64 133.5t-163 46.5h-234z" />
    <glyph glyph-name="S" unicode="S" horiz-adv-x="1282" 
d="M1176 995h-338q-3 103 -62 146t-145 43q-84 0 -138.5 -36t-54.5 -99q0 -59 36.5 -89.5t117.5 -54.5l239 -71q80 -24 141 -55t113.5 -77.5t80.5 -114.5t28 -153q0 -225 -148 -343t-393 -118q-123 0 -225 30t-180.5 89.5t-124 157t-49.5 225.5h332q3 -110 71 -162.5
t170 -52.5q106 0 161.5 39.5t55.5 114.5q0 58 -40.5 87t-131.5 58l-233 74q-77 24 -135 54.5t-108 77.5t-76.5 116t-26.5 157q0 194 149.5 311t372.5 117q112 0 206 -28.5t166.5 -85t117 -147.5t51.5 -210z" />
    <glyph glyph-name="T" unicode="T" horiz-adv-x="1167" 
d="M420 0v1143h-385v297h1098v-297h-388v-1143h-325z" />
    <glyph glyph-name="U" unicode="U" horiz-adv-x="1421" 
d="M1276 1440v-942q0 -154 -75 -274.5t-204 -185.5t-288 -65q-240 0 -402 146.5t-162 378.5v942h326v-932q0 -101 61.5 -164t167.5 -63q118 0 184 63.5t66 163.5v932h326z" />
    <glyph glyph-name="V" unicode="V" horiz-adv-x="1382" 
d="M516 0l-477 1440h362l297 -983l303 983h342l-479 -1440h-348z" />
    <glyph glyph-name="W" unicode="W" horiz-adv-x="2113" 
d="M449 0l-410 1440h350l254 -967l275 967h301l270 -963l258 963h330l-414 -1440h-344l-260 866l-264 -866h-346z" />
    <glyph glyph-name="X" unicode="X" horiz-adv-x="1400" 
d="M-8 0l512 737l-481 703h380l297 -449l306 449h362l-479 -695l526 -745h-389l-336 483l-332 -483h-366z" />
    <glyph glyph-name="Y" unicode="Y" horiz-adv-x="1363" 
d="M522 0v485l-487 955h371l282 -598l299 598h342l-481 -938v-502h-326z" />
    <glyph glyph-name="Z" unicode="Z" horiz-adv-x="1245" 
d="M82 0v260l653 883h-635v297h1045v-279l-647 -864h663v-297h-1079z" />
    <glyph glyph-name="a" unicode="a" horiz-adv-x="1136" 
d="M719 119q-54 -77 -133.5 -111.5t-163.5 -34.5q-149 0 -245.5 81.5t-96.5 215.5q0 136 89 221t282 127l256 58v10q0 57 -39.5 92t-106.5 35q-69 0 -111.5 -33.5t-48.5 -89.5h-301q9 161 139 270t328 109q111 0 197.5 -32t140.5 -88.5t81.5 -131t27.5 -162.5v-655h-295v119
zM707 430v35l-175 -37q-147 -32 -147 -117q0 -94 119 -94q84 0 143.5 65.5t59.5 147.5z" />
    <glyph glyph-name="b" unicode="b" horiz-adv-x="1345" 
d="M135 0v1518h311v-607q131 158 336 158q217 0 354.5 -153t137.5 -392q0 -240 -138.5 -395.5t-357.5 -155.5q-221 0 -346 168v-141h-297zM692 786q-116 0 -185 -76.5t-69 -189.5t69 -189.5t185 -76.5t186 76.5t70 189.5t-70 189.5t-186 76.5z" />
    <glyph glyph-name="c" unicode="c" 
d="M1176 612h-310q-22 77 -84 123.5t-149 46.5q-114 0 -184 -75t-70 -187q0 -111 69.5 -185.5t184.5 -74.5q88 0 150.5 47.5t84.5 124.5h308q-28 -200 -176.5 -329.5t-366.5 -129.5q-167 0 -297 74t-199 198.5t-69 276.5q0 151 69 275t199 198t297 74q218 0 366.5 -129.5
t176.5 -327.5z" />
    <glyph glyph-name="d" unicode="d" horiz-adv-x="1343" 
d="M563 -27q-217 0 -355 153t-138 390q0 241 138.5 397t356.5 156q209 0 332 -149v598h311v-1518h-293v152q-132 -179 -352 -179zM653 254q115 0 184.5 77t69.5 189q0 114 -69.5 190t-184.5 76q-118 0 -188 -76t-70 -190q0 -112 70 -189t188 -77z" />
    <glyph glyph-name="e" unicode="e" 
d="M848 338h301q-48 -169 -186 -267t-342 -98q-162 0 -289.5 73.5t-195.5 198t-68 275.5q0 150 71.5 275.5t199.5 199.5t286 74q165 0 290 -71t189.5 -191t64.5 -270v-95h-804q21 -101 88.5 -160t171.5 -59q157 0 223 115zM625 817q-90 0 -153.5 -45.5t-92.5 -124.5h489
q-25 80 -88.5 125t-154.5 45z" />
    <glyph glyph-name="f" unicode="f" horiz-adv-x="817" 
d="M227 0v764h-157v278h157v88q0 414 402 414q82 0 176 -20v-273q-82 17 -123 17q-75 0 -109 -33.5t-34 -108.5v-84h243v-278h-243v-764h-312z" />
    <glyph glyph-name="g" unicode="g" horiz-adv-x="1292" 
d="M389 -47q6 -72 67 -115t160 -43q111 0 171.5 59.5t60.5 157.5v168q-115 -131 -305 -131q-208 0 -337.5 142t-129.5 366t132 368t345 144q199 0 313 -147v120h293v-999q0 -108 -34 -199.5t-99.5 -160.5t-170 -107.5t-237.5 -38.5q-228 0 -377 118.5t-157 297.5h305z
M627 324q104 0 167.5 67.5t63.5 167.5q0 99 -64 167.5t-167 68.5t-166.5 -68t-63.5 -168q0 -101 63 -168t167 -67z" />
    <glyph glyph-name="h" unicode="h" 
d="M135 0v1518h311v-582q108 133 295 133q172 0 272.5 -107.5t100.5 -277.5v-684h-311v600q0 80 -41 131t-133 51t-137.5 -55.5t-45.5 -136.5v-590h-311z" />
    <glyph glyph-name="i" unicode="i" horiz-adv-x="585" 
d="M291 1530q89 0 141.5 -53.5t52.5 -133.5q0 -77 -52.5 -130.5t-141.5 -53.5q-88 0 -140.5 53.5t-52.5 130.5q0 79 52.5 133t140.5 54zM137 0v1042h312v-1042h-312z" />
    <glyph glyph-name="j" unicode="j" horiz-adv-x="600" 
d="M307 1530q89 0 141 -53.5t52 -133.5q0 -77 -52 -130.5t-141 -53.5t-140.5 53.5t-51.5 130.5q0 80 51.5 133.5t140.5 53.5zM463 1042v-1089q0 -199 -94 -307.5t-308 -108.5q-42 0 -108 8v273q46 -4 55 -4q75 0 109.5 34t34.5 107v1087h311z" />
    <glyph glyph-name="k" unicode="k" horiz-adv-x="1138" 
d="M135 0v1518h311v-891l291 415h353l-338 -464l401 -578h-369l-338 492v-492h-311z" />
    <glyph glyph-name="l" unicode="l" horiz-adv-x="585" 
d="M137 0v1518h312v-1518h-312z" />
    <glyph glyph-name="m" unicode="m" horiz-adv-x="1867" 
d="M135 0v1042h297v-127q53 78 132 116t167 38q106 0 186 -45t125 -125q57 85 144.5 127.5t189.5 42.5q170 0 268.5 -107t98.5 -278v-684h-311v600q0 79 -39 130.5t-125 51.5q-88 0 -130 -55t-42 -137v-590h-312v600q0 79 -40 130.5t-126 51.5t-129 -55.5t-43 -136.5v-590
h-311z" />
    <glyph glyph-name="n" unicode="n" 
d="M135 0v1042h297v-127q54 78 135.5 116t173.5 38q172 0 272.5 -107.5t100.5 -277.5v-684h-311v596q0 82 -40.5 134t-133.5 52q-92 0 -137.5 -55.5t-45.5 -136.5v-590h-311z" />
    <glyph glyph-name="o" unicode="o" horiz-adv-x="1267" 
d="M633 1069q165 0 295 -74t200 -198.5t70 -274.5q0 -151 -70 -276t-200 -199t-295 -74q-167 0 -297 74t-199 198.5t-69 276.5q0 151 69 275t199 198t297 74zM633 782q-115 0 -185.5 -75.5t-70.5 -186.5t70.5 -185.5t185.5 -74.5t186.5 74.5t71.5 185.5t-71.5 186.5
t-186.5 75.5z" />
    <glyph glyph-name="p" unicode="p" horiz-adv-x="1345" 
d="M135 1042h297v-149q129 176 350 176q217 0 354.5 -153t137.5 -392q0 -240 -138.5 -395.5t-357.5 -155.5q-207 0 -332 148v-555h-311v1476zM692 786q-116 0 -185 -76.5t-69 -189.5t69 -189.5t185 -76.5t186 76.5t70 189.5t-70 189.5t-186 76.5z" />
    <glyph glyph-name="q" unicode="q" horiz-adv-x="1343" 
d="M563 -27q-217 0 -355 153t-138 390q0 241 138.5 397t356.5 156q221 0 350 -172v145h293v-1476h-311v565q-125 -158 -334 -158zM653 254q115 0 184.5 77t69.5 189q0 114 -69.5 190t-184.5 76q-118 0 -188 -76t-70 -190q0 -112 70 -189t188 -77z" />
    <glyph glyph-name="r" unicode="r" horiz-adv-x="827" 
d="M446 471v-471h-311v1042h297v-178q52 101 129.5 150t167.5 49q40 0 64 -6v-293q-50 10 -82 10q-70 0 -123 -25t-83 -68.5t-44.5 -96t-14.5 -113.5z" />
    <glyph glyph-name="s" unicode="s" horiz-adv-x="1056" 
d="M967 725h-318q0 106 -121 106q-49 0 -81.5 -18.5t-32.5 -54.5q0 -38 29 -57t100 -35l84 -19q85 -19 144 -41t110.5 -58.5t77.5 -92t26 -131.5q0 -169 -123.5 -260t-320.5 -91q-214 0 -343 90.5t-139 276.5h328q0 -68 39.5 -99.5t105.5 -31.5q62 0 97 22.5t35 65.5
q0 41 -29 62t-90 34l-101 21q-76 15 -132.5 36.5t-108 57.5t-78.5 93t-27 134q0 104 59.5 181t156.5 115t218 38q187 0 304.5 -86.5t130.5 -257.5z" />
    <glyph glyph-name="t" unicode="t" horiz-adv-x="847" 
d="M205 1335l311 74v-367h244v-278h-244v-383q0 -72 29.5 -102.5t95.5 -30.5q77 0 139 39v-273q-87 -41 -213 -41q-191 0 -276.5 98.5t-85.5 282.5v410h-156v278h156v293z" />
    <glyph glyph-name="u" unicode="u" horiz-adv-x="1220" 
d="M774 451v591h311v-1042h-294v125q-53 -76 -132 -114t-167 -38q-168 0 -266.5 108t-98.5 277v684h311v-596q0 -84 38.5 -138t123.5 -54q89 0 131.5 56.5t42.5 140.5z" />
    <glyph glyph-name="v" unicode="v" horiz-adv-x="1153" 
d="M401 0l-374 1042h329l226 -651l223 651h321l-376 -1042h-349z" />
    <glyph glyph-name="w" unicode="w" horiz-adv-x="1783" 
d="M371 0l-346 1042h311l205 -649l204 649h299l207 -651l205 651h303l-346 -1042h-313l-207 621l-209 -621h-313z" />
    <glyph glyph-name="x" unicode="x" horiz-adv-x="1112" 
d="M8 0l363 522l-348 520h350l190 -288l195 288h327l-350 -510l373 -532h-360l-203 297l-203 -297h-334z" />
    <glyph glyph-name="y" unicode="y" horiz-adv-x="1150" 
d="M1122 1042l-526 -1476h-313l141 403l-399 1073h329l224 -651l223 651h321z" />
    <glyph glyph-name="z" unicode="z" horiz-adv-x="1077" 
d="M66 0v207l514 557h-482v278h881v-221l-487 -542h518v-279h-944z" />
    <glyph glyph-name="uni00A0" unicode="&#xa0;" horiz-adv-x="456" 
 />
    </font>
</defs>
</svg>
